<svg width="507" height="512" viewBox="0 0 507 512" fill="none" xmlns="http://www.w3.org/2000/svg">
<path d="M244.821 320C239.163 320 233.737 322.248 229.736 326.248C225.736 330.249 223.488 335.675 223.488 341.333V405.333C223.488 422.307 216.745 438.586 204.743 450.588C192.741 462.591 176.462 469.333 159.488 469.333H106.667C89.6928 469.333 73.4142 462.591 61.4118 450.588C49.4095 438.586 42.6667 422.307 42.6667 405.333V106.667C42.6667 89.6928 49.4095 73.4142 61.4118 61.4118C73.4142 49.4095 89.6928 42.6667 106.667 42.6667H159.488C176.462 42.6667 192.741 49.4095 204.743 61.4118C216.745 73.4142 223.488 89.6928 223.488 106.667V170.667C223.488 176.325 225.736 181.751 229.736 185.752C233.737 189.752 239.163 192 244.821 192C250.479 192 255.906 189.752 259.906 185.752C263.907 181.751 266.155 176.325 266.155 170.667V106.667C266.121 78.3873 254.872 51.2759 234.875 31.2794C214.879 11.2828 187.767 0.0338743 159.488 0H106.667C78.3873 0.0338743 51.2759 11.2828 31.2794 31.2794C11.2828 51.2759 0.0338743 78.3873 0 106.667L0 405.333C0.0338743 433.613 11.2828 460.724 31.2794 480.721C51.2759 500.717 78.3873 511.966 106.667 512H159.488C187.767 511.966 214.879 500.717 234.875 480.721C254.872 460.724 266.121 433.613 266.155 405.333V341.333C266.155 335.675 263.907 330.249 259.906 326.248C255.906 322.248 250.479 320 244.821 320Z" fill="white"/>
<path d="M487.829 210.752L389.994 112.917C388.026 110.88 385.672 109.254 383.069 108.136C380.467 107.018 377.667 106.43 374.835 106.405C372.002 106.38 369.193 106.92 366.571 107.993C363.949 109.066 361.567 110.65 359.564 112.653C357.561 114.656 355.977 117.038 354.905 119.659C353.832 122.281 353.292 125.09 353.317 127.923C353.341 130.756 353.93 133.555 355.048 136.158C356.166 138.76 357.791 141.115 359.829 143.082L450.773 234.026L127.999 234.666C122.341 234.666 116.915 236.914 112.914 240.915C108.914 244.916 106.666 250.342 106.666 256C106.666 261.658 108.914 267.084 112.914 271.085C116.915 275.085 122.341 277.333 127.999 277.333L452.01 276.693L359.786 368.917C357.748 370.885 356.123 373.239 355.005 375.842C353.887 378.445 353.299 381.244 353.274 384.077C353.249 386.909 353.789 389.718 354.862 392.34C355.934 394.962 357.519 397.344 359.522 399.347C361.525 401.35 363.907 402.934 366.528 404.007C369.15 405.079 371.959 405.619 374.792 405.594C377.625 405.57 380.424 404.981 383.027 403.863C385.629 402.745 387.983 401.12 389.951 399.082L487.786 301.248C499.79 289.252 506.538 272.979 506.546 256.009C506.554 239.038 499.821 222.759 487.829 210.752Z" fill="white"/>
</svg>
