<svg width="500" height="501" viewBox="0 0 500 501" fill="none" xmlns="http://www.w3.org/2000/svg">
<path d="M106.001 99.0005C113.921 99.0005 121.841 99.0005 130.001 99.0005C130.838 102.351 131.123 104.665 131.114 108.044C131.114 109.045 131.114 110.046 131.114 111.077C131.109 112.15 131.104 113.223 131.098 114.329C131.097 115.433 131.096 116.537 131.094 117.674C131.089 121.2 131.076 124.725 131.063 128.25C131.058 130.641 131.054 133.032 131.05 135.422C131.039 141.282 131.022 147.141 131.001 153C131.991 153 132.981 153 134.001 153C134.661 151.68 135.321 150.36 136.001 149C136.661 149 137.321 149 138.001 149C138.661 147.68 139.321 146.36 140.001 145C140.661 145 141.321 145 142.001 145C142.661 143.68 143.321 142.36 144.001 141C144.661 141 145.321 141 146.001 141C146.661 139.68 147.321 138.36 148.001 137C148.661 137 149.321 137 150.001 137C150.661 135.68 151.321 134.36 152.001 133C152.661 133 153.321 133 154.001 133C154.661 131.68 155.321 130.36 156.001 129C156.661 129 157.321 129 158.001 129C158.661 127.68 159.321 126.36 160.001 125C160.661 125 161.321 125 162.001 125C162.661 123.68 163.321 122.36 164.001 121C164.661 121 165.321 121 166.001 121C166.661 119.68 167.321 118.36 168.001 117C168.661 117 169.321 117 170.001 117C170.661 115.68 171.321 114.36 172.001 113C172.661 113 173.321 113 174.001 113C174.26 112.426 174.519 111.851 174.786 111.258C176.1 108.817 177.604 106.951 179.438 104.875C180.333 103.851 180.333 103.851 181.247 102.805C183.893 100.082 185.449 99.0387 189.279 98.7734C190.617 98.7738 191.956 98.785 193.294 98.8052C194.353 98.8094 194.353 98.8094 195.433 98.8138C197.685 98.8249 199.936 98.85 202.188 98.8755C203.716 98.8855 205.244 98.8946 206.772 98.9028C210.515 98.9249 214.258 98.9594 218.001 99.0005C217.671 100.65 217.341 102.3 217.001 104C216.011 104.33 215.021 104.66 214.001 105C214.001 105.66 214.001 106.32 214.001 107C212.427 108.516 212.427 108.516 210.313 110.25C206.747 113.276 203.926 116.364 201.001 120C198.313 122.875 198.313 122.875 196.001 125C195.341 125 194.681 125 194.001 125C193.341 126.32 192.681 127.64 192.001 129C191.341 129 190.681 129 190.001 129C189.341 130.32 188.681 131.64 188.001 133C187.341 133 186.681 133 186.001 133C185.671 133.99 185.341 134.98 185.001 136C183.505 137.475 183.505 137.475 181.563 139.067C176.432 143.421 171.733 148.158 167.001 152.938C166.131 153.813 165.26 154.687 164.364 155.588C162.241 157.723 160.12 159.861 158.001 162C159.473 165.061 161.045 167.398 163.313 169.938C163.929 170.63 164.546 171.322 165.18 172.036C166.725 173.703 168.302 175.3 169.938 176.875C172.001 179 172.001 179 172.001 181C172.661 181 173.321 181 174.001 181C175.516 182.504 175.516 182.504 177.251 184.563C177.872 185.293 178.493 186.022 179.134 186.774C179.75 187.509 180.366 188.243 181.001 189C182.041 190.231 183.082 191.46 184.126 192.688C184.608 193.255 185.09 193.822 185.587 194.407C186.908 195.896 188.327 197.297 189.751 198.688C192.001 201 192.001 201 193.063 203.188C194.274 205.529 195.603 206.041 198.001 207C198.001 207.66 198.001 208.32 198.001 209C199.981 209.99 199.981 209.99 202.001 211C202.001 211.66 202.001 212.32 202.001 213C202.589 213.252 203.176 213.503 203.782 213.762C206.278 215.155 207.666 216.632 209.501 218.813C210.1 219.523 210.7 220.234 211.317 220.965C212.151 221.973 212.151 221.973 213.001 223C213.805 223.949 214.609 224.898 215.438 225.875C217.001 228 217.001 228 217.001 230C212.797 232.102 207.303 231.186 202.679 231.186C200.64 231.188 198.602 231.206 196.563 231.225C195.277 231.227 193.99 231.229 192.665 231.231C191.484 231.235 190.302 231.239 189.085 231.243C185.161 230.934 183.06 230.052 180.29 227.301C179.741 226.645 179.192 225.989 178.626 225.313C178.022 224.601 177.419 223.89 176.798 223.157C175.908 222.089 175.908 222.089 175.001 221C173.961 219.769 172.92 218.54 171.876 217.313C171.394 216.746 170.912 216.179 170.415 215.594C169.094 214.105 167.675 212.704 166.251 211.313C164.001 209 164.001 209 162.938 206.813C162.147 204.84 162.147 204.84 160.126 204.09C157.793 202.894 156.717 201.768 155.063 199.75C151.123 195.086 146.975 190.639 142.796 186.189C142.264 185.62 141.732 185.051 141.184 184.465C140.716 183.966 140.247 183.467 139.764 182.953C137.116 180.021 134.563 177.008 132.001 174C131.985 175.027 131.985 175.027 131.969 176.075C131.862 183.18 131.747 190.285 131.628 197.389C131.585 200.043 131.543 202.697 131.503 205.351C131.446 209.159 131.382 212.966 131.317 216.774C131.292 218.563 131.292 218.563 131.266 220.388C131.247 221.489 131.227 222.59 131.206 223.725C131.191 224.697 131.175 225.67 131.159 226.672C131.001 229 131.001 229 130.001 231C122.081 231 114.161 231 106.001 231C104.738 228.475 104.875 226.741 104.874 223.914C104.871 222.837 104.868 221.76 104.865 220.651C104.867 219.464 104.869 218.278 104.871 217.055C104.87 215.81 104.868 214.564 104.866 213.281C104.862 209.859 104.863 206.438 104.866 203.017C104.869 199.441 104.867 195.865 104.865 192.289C104.863 186.283 104.866 180.278 104.87 174.272C104.876 167.323 104.874 160.373 104.869 153.424C104.864 147.464 104.863 141.504 104.866 135.544C104.868 131.981 104.868 128.418 104.864 124.856C104.861 120.886 104.866 116.916 104.871 112.946C104.869 111.759 104.867 110.573 104.865 109.35C104.868 108.273 104.871 107.196 104.874 106.087C104.874 105.147 104.875 104.208 104.875 103.24C105.001 101 105.001 101 106.001 99.0005Z" fill="#FDFCF8"/>
<path d="M310 100C337.72 100 365.44 100 394 100C394 107.59 394 115.18 394 123C393 124 393 124 390.716 124.12C389.705 124.118 388.695 124.116 387.654 124.114C386.513 124.113 385.372 124.113 384.196 124.113C382.955 124.108 381.713 124.103 380.434 124.098C378.538 124.096 378.538 124.096 376.604 124.093C373.239 124.089 369.874 124.08 366.508 124.069C363.077 124.058 359.645 124.054 356.213 124.049C349.475 124.039 342.738 124.019 336 124C336 133.57 336 143.14 336 153C352.5 153 369 153 386 153C387.625 156.251 387.143 159.807 387.125 163.375C387.129 164.143 387.133 164.912 387.137 165.703C387.135 166.448 387.134 167.193 387.133 167.961C387.132 168.639 387.131 169.318 387.129 170.017C387 172 387 172 386 176C369.83 176 353.66 176 337 176C336.67 186.23 336.34 196.46 336 207C340.175 206.988 344.351 206.977 348.652 206.965C351.973 206.958 355.294 206.953 358.614 206.948C362.124 206.943 365.634 206.936 369.144 206.925C373.168 206.912 377.191 206.907 381.215 206.902C382.478 206.897 383.742 206.892 385.044 206.887C386.205 206.887 387.366 206.887 388.562 206.886C390.104 206.883 390.104 206.883 391.678 206.88C394 207 394 207 395 208C395.099 209.55 395.131 211.104 395.133 212.656C395.134 213.596 395.135 214.536 395.137 215.504C395.133 216.493 395.129 217.481 395.125 218.5C395.129 219.489 395.133 220.477 395.137 221.496C395.135 222.436 395.134 223.376 395.133 224.344C395.132 225.212 395.131 226.08 395.129 226.975C395 229 395 229 394 230C391.383 230.095 388.793 230.126 386.176 230.114C385.343 230.114 384.51 230.114 383.652 230.114C380.944 230.113 378.236 230.106 375.527 230.098C373.86 230.096 372.193 230.095 370.526 230.095C364.33 230.089 358.134 230.075 351.938 230.062C338.098 230.042 324.259 230.021 310 230C310 187.1 310 144.2 310 100Z" fill="#FDFBF8"/>
<path d="M270.875 119.75C276.309 125.504 278.077 132.162 278 140C277 141 277 141 275.234 141.114C274.486 141.109 273.737 141.103 272.965 141.098C272.156 141.095 271.347 141.092 270.514 141.088C269.664 141.08 268.814 141.071 267.938 141.063C267.084 141.058 266.23 141.054 265.35 141.049C263.233 141.037 261.117 141.019 259 141C258.711 140.031 258.423 139.062 258.125 138.063C257.358 134.894 257.358 134.894 255 134C252.892 133.765 252.892 133.765 250.563 133.75C249.78 133.725 248.998 133.699 248.192 133.672C245.471 134.08 244.629 134.818 243 137C242.45 140.615 242.614 142.382 244.563 145.5C247.025 148.026 249.612 150.259 252.317 152.516C254.534 154.471 256.316 156.575 258 159C258 159.66 258 160.32 258 161C259.32 161.66 260.64 162.32 262 163C262 163.66 262 164.32 262 165C262.66 165 263.32 165 264 165C265.436 166.615 266.802 168.292 268.125 170C268.85 170.928 269.574 171.857 270.321 172.813C270.875 173.535 271.429 174.257 272 175C272.194 174.409 272.387 173.817 272.586 173.207C272.847 172.417 273.107 171.627 273.375 170.813C273.758 169.647 273.758 169.647 274.149 168.457C275.02 165.943 276.012 163.471 277 161C282.61 161 288.22 161 294 161C294.747 169.967 292.763 176.263 289.41 184.399C287.636 188.594 287.636 188.594 287 193C288.848 195.719 288.848 195.719 291.438 198.188C296 202.834 296 202.834 296 205C296.66 205 297.32 205 298 205C300.188 207.188 300.188 207.188 302 210C301.614 212.676 301.614 212.676 301 215C297.647 215.205 294.295 215.328 290.938 215.438C289.523 215.526 289.523 215.526 288.08 215.616C281.11 215.786 281.11 215.786 277.755 213.411C276.028 211.684 274.473 209.947 273 208C272.479 208.343 271.959 208.686 271.422 209.039C269.311 210.414 267.166 211.715 265 213C264.024 213.588 264.024 213.588 263.028 214.188C254.128 218.852 241.824 219.209 232.176 216.793C226.01 214.546 221.419 210.798 217 206C216.505 205.544 216.01 205.088 215.5 204.617C209.722 198.388 209.315 189.691 209.551 181.625C210.743 172.004 216.666 164.675 223.875 158.563C224.576 158.047 225.278 157.532 226 157C225.732 156.361 225.464 155.722 225.188 155.063C224.796 154.052 224.404 153.042 224 152C223.586 151.035 223.586 151.035 223.164 150.051C220.76 143.908 220.122 138.398 222 132C226.595 123.628 232.392 117.715 241.539 114.543C252.323 112.164 261.616 114.114 270.875 119.75ZM238 170C233.546 174.788 231.217 178.269 230.688 184.938C230.84 188.999 231.545 191.653 234 195C237.96 197.996 241.633 199.808 246.563 200.5C251.442 199.791 256.341 198.978 259.625 195.063C260.158 193.005 260.158 193.005 259.438 191.063C258.004 188.877 258.004 188.877 255.828 186.828C253.738 184.738 251.726 182.634 249.739 180.45C249.177 179.834 248.616 179.218 248.037 178.584C246.873 177.303 245.711 176.019 244.553 174.733C243.717 173.819 243.717 173.819 242.864 172.887C242.361 172.332 241.859 171.778 241.341 171.206C240.053 169.777 240.053 169.777 238 170Z" fill="#FDFCF9"/>
<path d="M381 245C383.563 247.5 383.563 247.5 385 250C375.804 267.907 360.885 286.686 344 298C343.34 298 342.68 298 342 298C342 298.66 342 299.32 342 300C340.68 300.33 339.36 300.66 338 301C338 301.66 338 302.32 338 303C303.722 327.021 259.298 334.442 218.438 327.375C179.654 319.81 179.654 319.81 171 308C170.608 304.406 170.426 301.999 172.254 298.821C174.385 296.599 175.269 296.379 178.313 296.313C184.458 296.537 189.206 299.358 194.516 302.192C199.55 304.805 204.535 306.523 210 308C210.624 308.182 211.247 308.364 211.89 308.552C247.824 318.726 286.803 311.556 319 294C320.618 293.022 322.226 292.027 323.813 291C327 289 327 289 330 289C330 288.34 330 287.68 330 287C331.681 285.667 333.422 284.408 335.188 283.188C339.171 280.364 342.636 277.552 346 274C347.031 273.196 348.063 272.392 349.125 271.563C355.659 266.066 361.425 258.436 365.703 251.067C366.131 250.385 366.559 249.703 367 249C367.66 249 368.32 249 369 249C369.33 248.01 369.66 247.02 370 246C373.455 244.273 377.232 244.371 381 245Z" fill="#FDFCF9"/>
<path d="M246.5 5.68789C247.197 5.69005 247.895 5.69221 248.613 5.69443C267.461 5.78745 284.376 8.24336 302 15.0004C302.71 15.2682 303.42 15.536 304.152 15.8119C320.644 22.0632 320.644 22.0632 323.313 25.8754C324.457 29.4141 324.539 31.8587 322.938 35.2504C320.021 37.885 317.895 37.9365 314 38.0004C311.163 37.135 308.687 36.2034 306 35.0004C272.589 20.3618 233.161 17.8944 198.586 30.5199C188.61 34.6385 178.873 39.1084 169.785 44.9691C168 46.0004 168 46.0004 166 46.0004C166 46.6604 166 47.3204 166 48.0004C164.02 48.4954 164.02 48.4954 162 49.0004C162 49.6604 162 50.3204 162 51.0004C160.602 52.1918 160.602 52.1918 158.625 53.5629C149.015 60.5796 139.724 68.926 133.656 79.2973C132 81.0004 132 81.0004 128.934 81.4965C127.78 81.4772 126.626 81.4578 125.438 81.4379C123.703 81.436 123.703 81.436 121.934 81.434C120.966 81.2909 119.997 81.1478 119 81.0004C117 78.0004 117 78.0004 117.125 75.1254C118.133 71.5271 119.613 69.8507 122 67.0004C122.639 66.1844 123.279 65.3684 123.938 64.5277C128.133 59.2595 132.491 54.3231 137.25 49.5629C137.745 49.0672 138.24 48.5714 138.75 48.0607C146.933 40.0004 146.933 40.0004 150 40.0004C150.33 39.0104 150.66 38.0204 151 37.0004C151.99 37.0004 152.98 37.0004 154 37.0004C154.495 35.5154 154.495 35.5154 155 34.0004C156.974 32.475 158.896 31.135 161 29.8129C161.925 29.2257 161.925 29.2257 162.868 28.6266C175.318 20.9266 189.659 14.0821 204 11.0004C205.56 10.6465 205.56 10.6465 207.152 10.2856C220.311 7.36302 232.981 5.61238 246.5 5.68789Z" fill="#FDFCF9"/>
<path d="M172.001 245C183.032 244.931 194.062 244.877 205.093 244.845C210.215 244.829 215.337 244.808 220.459 244.774C225.399 244.741 230.34 244.723 235.281 244.716C237.168 244.71 239.055 244.699 240.942 244.683C243.581 244.661 246.219 244.658 248.858 244.66C249.642 244.649 250.426 244.638 251.233 244.627C256.506 244.657 256.506 244.657 258.991 246.38C260.361 248.579 260.3 250.119 260.188 252.688C260.148 253.9 260.148 253.9 260.106 255.137C260.072 255.752 260.037 256.367 260.001 257C259.341 257 258.681 257 258.001 257C258.001 257.66 258.001 258.32 258.001 259C255.013 260.494 252.347 260.062 249.016 260.003C247.525 259.98 246.035 259.957 244.545 259.934C243.356 259.913 243.356 259.913 242.144 259.892C237.948 259.824 233.752 259.788 229.556 259.746C224.216 259.692 218.877 259.629 213.538 259.527C209.224 259.446 204.91 259.399 200.596 259.375C198.955 259.36 197.315 259.332 195.675 259.291C185.219 258.77 185.219 258.77 176.165 263.315C175.079 264.516 174.022 265.744 173.001 267C171.766 268.214 170.521 269.417 169.263 270.606C168.069 271.797 166.877 272.991 165.688 274.188C164.779 275.092 164.779 275.092 163.85 276.014C161.462 278.407 159.221 280.703 157.208 283.426C156.81 283.945 156.411 284.465 156.001 285C155.341 285 154.681 285 154.001 285C153.341 286.32 152.681 287.64 152.001 289C151.341 289 150.681 289 150.001 289C149.341 290.32 148.681 291.64 148.001 293C147.341 293 146.681 293 146.001 293C145.341 294.32 144.681 295.64 144.001 297C143.341 297 142.681 297 142.001 297C142.496 298.031 142.991 299.063 143.501 300.125C145.954 306.753 146.512 314.756 144.122 321.469C141.084 326.683 136.407 331.711 130.688 333.875C129.801 333.916 128.915 333.958 128.001 334C127.258 334.049 126.516 334.098 125.751 334.149C119.755 334.386 115.474 333.433 110.001 331C110.001 330.34 110.001 329.68 110.001 329C109.423 328.959 108.846 328.918 108.251 328.875C104.757 327.517 103.789 325.219 102.001 322C98.8446 313.478 99.3528 306.173 103.001 298C106.14 293.129 109.932 289.863 115.587 288.274C119.943 287.379 123.148 286.809 127.548 287.797C128.687 287.864 129.827 287.931 131.001 288C133.725 285.735 133.725 285.735 135.813 282.563C137.178 280.686 138.567 278.825 140.001 277C140.661 277 141.321 277 142.001 277C142.661 275.68 143.321 274.36 144.001 273C144.661 273 145.321 273 146.001 273C146.661 271.68 147.321 270.36 148.001 269C148.661 269 149.321 269 150.001 269C150.661 267.68 151.321 266.36 152.001 265C152.661 265 153.321 265 154.001 265C154.661 263.68 155.321 262.36 156.001 261C156.661 261 157.321 261 158.001 261C158.661 259.68 159.321 258.36 160.001 257C160.661 257 161.321 257 162.001 257C162.661 255.68 163.321 254.36 164.001 253C164.661 253 165.321 253 166.001 253C166.661 251.68 167.321 250.36 168.001 249C168.661 249 169.321 249 170.001 249C170.661 247.68 171.321 246.36 172.001 245ZM118.001 306C115.656 308.885 115.656 308.885 116.126 312.5C116.726 315.95 116.726 315.95 118.626 318C122.085 319.457 124.414 318.913 128.001 318C130.065 317.02 130.065 317.02 131.001 315C131.391 310.633 131.464 308.695 129.001 305C124.76 303.979 121.635 303.308 118.001 306Z" fill="#FCFCF9"/>
<path d="M382.863 2.10538C385.187 3.56224 387.054 5.0713 389 6.99991C389.532 7.50651 390.065 8.01311 390.613 8.53506C394.986 13.5482 395.175 19.579 395 25.9999C394.48 29.8718 393.753 33.4942 392 36.9999C391.34 36.9999 390.68 36.9999 390 36.9999C389.938 37.5774 389.876 38.1549 389.812 38.7499C388.361 42.7697 385.149 44.4396 381.438 46.2499C375.896 47.4589 369.099 48.1294 363.689 46.1576C360.766 45.6947 360.766 45.6947 358.157 48.1461C357.112 49.1848 356.084 50.2402 355.07 51.3085C354.517 51.868 353.963 52.4276 353.393 53.0041C351.623 54.8016 349.874 56.6191 348.125 58.4374C346.956 59.6282 345.785 60.8176 344.613 62.0058C339.373 67.3419 334.233 72.7338 329.365 78.4147C327.569 80.5002 325.686 82.4821 323.75 84.4374C323.105 85.0961 322.461 85.7548 321.797 86.4335C318.551 89.2631 315.471 89.1261 311.351 89.1293C310.193 89.1325 309.036 89.1356 307.843 89.1389C306.593 89.1368 305.343 89.1348 304.055 89.1327C302.774 89.1337 301.493 89.1346 300.174 89.1356C297.465 89.1371 294.757 89.135 292.048 89.1303C288.57 89.1246 285.092 89.1279 281.613 89.1339C278.302 89.1383 274.991 89.1352 271.68 89.1327C269.799 89.1358 269.799 89.1358 267.879 89.1389C266.728 89.1357 265.576 89.1326 264.39 89.1293C262.861 89.1281 262.861 89.1281 261.302 89.1269C259 88.9999 259 88.9999 258 87.9999C257.832 86.0038 257.832 86.0038 257.812 83.5624C257.798 82.7593 257.784 81.9562 257.77 81.1288C258 78.9999 258 78.9999 260 76.9999C262.139 76.7214 262.139 76.7214 264.817 76.6811C266.318 76.6513 266.318 76.6513 267.85 76.6208C268.933 76.6093 270.017 76.5977 271.133 76.5858C272.24 76.5665 273.347 76.5471 274.487 76.5272C278.033 76.4672 281.579 76.4209 285.125 76.3749C287.525 76.3367 289.924 76.2977 292.324 76.2577C298.216 76.1615 304.108 76.0765 310 75.9999C310.495 74.5149 310.495 74.5149 311 72.9999C312.429 71.8032 313.863 70.6108 315.324 69.453C317.089 67.9224 318.515 66.3019 320 64.4999C322.701 61.2356 325.742 58.7147 329 55.9999C330.021 54.8514 331.02 53.6837 332 52.4999C334.701 49.2356 337.742 46.7147 341 43.9999C342.623 42.1909 344.175 40.3428 345.703 38.453C347 36.9999 347 36.9999 349 35.9999C348.948 34.1727 348.948 34.1727 348.895 32.3085C348.866 30.6848 348.839 29.0611 348.812 27.4374C348.787 26.6375 348.762 25.8377 348.736 25.0136C348.651 18.0147 350.162 13.6035 354.25 7.81241C361.844 0.0453372 372.567 -1.86995 382.863 2.10538ZM366 16.9999C363.722 20.2369 363.447 23.1258 364 26.9999C366.115 29.6441 368.014 31.4274 370.938 33.1249C373.861 32.9477 375.607 31.5285 377.727 29.5976C379.923 26.8415 380.063 24.4381 380 20.9999C379.236 18.4812 379.236 18.4812 377 16.9999C373.025 15.9505 369.92 15.6932 366 16.9999Z" fill="#FDFCF9"/>
<path d="M261 371C265.465 375.818 266.12 378.485 266 385C262.37 385 258.74 385 255 385C254.67 383.68 254.34 382.36 254 381C251.69 381 249.38 381 247 381C246.131 383.249 246.131 383.249 246 386C247.872 388.694 247.872 388.694 250 391C250 391.66 250 392.32 250 393C251.32 393.66 252.64 394.32 254 395C254 395.66 254 396.32 254 397C254.577 397.227 255.155 397.454 255.75 397.687C258.566 399.33 260.08 401.395 262 404C262.99 401.69 263.98 399.38 265 397C268.63 397 272.26 397 276 397C274.767 410.348 274.767 410.348 271 416C271.974 417.247 271.974 417.247 272.968 418.519C273.812 419.617 274.656 420.714 275.5 421.812C276.143 422.633 276.143 422.633 276.8 423.471C280 427.66 280 427.66 280 431C269.469 432.721 269.469 432.721 265.867 430.953C264.25 429.562 264.25 429.562 262 427C261.428 427.361 260.857 427.722 260.269 428.094C253.223 432.126 247.058 433.267 239 432C233.16 429.869 228.626 425.637 226 420C224.309 413.928 224.849 407.891 227 402C229.141 398.753 230.76 397.159 234 395C233.67 394.195 233.34 393.391 233 392.562C231.399 386.862 231.221 382.076 233.312 376.5C235 374 235 374 238 373C238.33 372.01 238.66 371.02 239 370C246.725 367.004 253.631 366.891 261 371ZM239.937 405C237.263 409.14 237.38 411.124 238 416C239.654 418.688 240.883 419.67 243.906 420.562C247.451 421.197 249.314 421.394 252.5 419.562C252.995 419.047 253.49 418.531 254 418C253.58 413.108 251.557 411.234 248 408C247.092 407.072 246.185 406.144 245.25 405.187C242.568 402.294 242.568 402.294 239.937 405Z" fill="#FDFCFA"/>
<path d="M90.0003 242C90.0003 242.66 90.0003 243.32 90.0003 244C90.5778 244.247 91.1553 244.495 91.7503 244.75C94.3493 246.194 96.0786 247.735 98.0003 250C98.0003 250.99 98.0003 251.98 98.0003 253C99.0803 253.014 100.16 253.029 101.273 253.044C105.273 253.102 109.272 253.179 113.271 253.262C115.004 253.295 116.736 253.323 118.469 253.346C120.956 253.38 123.443 253.432 125.93 253.488C127.096 253.498 127.096 253.498 128.285 253.507C130.469 253.567 130.469 253.567 134 254C134.99 255.485 134.99 255.485 136 257C134.943 258.254 133.879 259.503 132.813 260.75C132.221 261.446 131.629 262.142 131.02 262.859C130.02 263.919 130.02 263.919 129 265C128.322 265.743 127.644 266.487 126.946 267.254C121.821 270.292 115.918 269.321 110.104 269.049C107.169 269.043 104.809 269.135 102 270C99.9377 272.099 98.6419 274.126 97.2717 276.724C94.8325 281.09 90.9216 283.857 86.6878 286.375C79.6271 288.017 72.3397 287.709 66.0003 284C60.7512 280.015 57.2321 275.536 56.0003 269C55.3404 262.113 55.1543 255.001 59.0003 249C63.0331 244.219 67.2638 241.147 73.4885 240.136C78.7661 239.849 85.1927 239.596 90.0003 242ZM74.6878 255.062C71.4183 257.415 71.4183 257.415 70.0003 261C70.2239 265.362 71.8059 268.057 75.0003 271C78.6661 271.523 80.9886 271.452 84.3753 269.937C86.7788 267.071 86.8711 264.68 87.0003 261C86.6669 258.666 86.6669 258.666 85.0003 257C81.0215 254.628 79.1788 253.622 74.6878 255.062Z" fill="#FDFCF9"/>
<path d="M436 54.9995C441.107 59.1779 444.364 64.0677 445.422 70.6089C445.788 77.8189 443.705 82.899 440 88.9995C439.34 88.9995 438.68 88.9995 438 88.9995C437.738 89.6131 437.477 90.2267 437.207 90.8589C435.104 94.588 432.004 95.7939 428 96.9995C420.388 97.9474 413.248 97.8297 407 92.9995C404.182 90.2944 402.252 87.7554 401 83.9995C400.082 83.9745 399.164 83.9494 398.218 83.9236C394.803 83.8283 391.389 83.7291 387.975 83.6272C386.499 83.584 385.023 83.5423 383.546 83.5022C381.421 83.4443 379.297 83.3806 377.172 83.3159C375.255 83.261 375.255 83.261 373.3 83.2049C370.681 83.0419 368.49 82.7701 366 81.9995C366.479 77.6567 367.626 75.9728 371 73.2495C371.722 72.6566 372.444 72.0636 373.188 71.4527C373.786 70.9731 374.384 70.4936 375 69.9995C375.33 69.6695 375.66 69.3395 376 68.9995C377.635 68.9125 379.273 68.8925 380.91 68.9019C381.9 68.9051 382.889 68.9083 383.908 68.9116C384.949 68.92 385.99 68.9284 387.062 68.937C388.63 68.9438 388.63 68.9438 390.229 68.9507C392.819 68.9625 395.41 68.979 398 68.9995C398.299 68.2454 398.598 67.4913 398.906 66.7144C402.229 58.4674 405.839 54.7467 414 50.9995C421.917 48.8988 429.208 50.5907 436 54.9995ZM415.562 66.4995C413.362 70.0208 413.196 72.9539 414 76.9995C415.397 79.6465 415.397 79.6465 418 80.9995C421.94 81.5624 424.058 81.6035 427.438 79.437C429.613 76.0425 429.556 73.963 429 69.9995C427.611 66.9504 427.611 66.9504 425 64.9995C421.067 64.3674 418.975 64.3993 415.562 66.4995Z" fill="#FDFCF9"/>
<path d="M163.999 369C168.289 369 172.579 369 176.999 369C177.329 377.25 177.659 385.5 177.999 394C183.082 388.941 183.082 388.941 187.812 383.563C188.895 382.294 188.895 382.294 189.999 381C190.659 381 191.319 381 191.999 381C192.39 380.124 192.39 380.124 192.788 379.23C194.077 376.857 195.474 375.225 197.374 373.313C197.96 372.711 198.545 372.109 199.148 371.488C202.715 368.621 206.309 368.885 210.749 368.938C211.734 368.947 212.719 368.956 213.734 368.965C214.855 368.982 214.855 368.982 215.999 369C216.494 369.99 216.494 369.99 216.999 371C216.669 371.66 216.339 372.32 215.999 373C215.339 373 214.679 373 213.999 373C213.339 374.32 212.679 375.64 211.999 377C211.339 377 210.679 377 209.999 377C209.339 378.32 208.679 379.64 207.999 381C207.339 381 206.679 381 205.999 381C205.339 382.32 204.679 383.64 203.999 385C203.339 385 202.679 385 201.999 385C201.339 386.32 200.679 387.64 199.999 389C199.339 389 198.679 389 197.999 389C197.659 389.804 197.659 389.804 197.312 390.625C195.565 393.785 193.359 396.268 190.999 399C193.72 402.481 193.72 402.481 196.749 405.688C197.999 407 197.999 407 197.999 409C199.319 409.66 200.639 410.32 201.999 411C201.999 411.66 201.999 412.32 201.999 413C202.659 413 203.319 413 203.999 413C205.54 414.696 207.009 416.458 208.437 418.25C209.219 419.225 210.002 420.199 210.808 421.203C211.531 422.126 212.254 423.049 212.999 424C213.588 424.717 214.177 425.433 214.784 426.172C215.999 428 215.999 428 215.999 431C213.581 431.135 211.17 431.234 208.749 431.313C208.067 431.354 207.385 431.396 206.683 431.439C204.671 431.488 204.671 431.488 200.999 431C198.679 428.641 198.679 428.641 196.999 426C196.133 425.154 195.267 424.309 194.374 423.438C192.249 421.257 191.324 419.65 189.999 417C188.514 416.505 188.514 416.505 186.999 416C185.374 414.201 183.819 412.337 182.312 410.438C181.504 409.426 180.695 408.414 179.863 407.371C179.248 406.589 178.633 405.806 177.999 405C177.974 405.752 177.949 406.504 177.923 407.279C177.808 410.665 177.685 414.051 177.562 417.438C177.522 418.622 177.483 419.806 177.443 421.025C177.401 422.15 177.359 423.275 177.316 424.434C177.279 425.476 177.242 426.518 177.205 427.592C176.999 430 176.999 430 175.999 431C174.362 431.286 172.713 431.505 171.062 431.688C170.166 431.795 169.27 431.902 168.347 432.012C165.999 432 165.999 432 163.999 430C163.759 427.444 163.759 427.444 163.772 424.173C163.772 422.952 163.773 421.731 163.773 420.473C163.783 419.136 163.793 417.798 163.804 416.461C163.808 415.096 163.811 413.731 163.813 412.367C163.82 408.773 163.84 405.179 163.862 401.585C163.882 397.919 163.892 394.252 163.902 390.586C163.923 383.391 163.958 376.195 163.999 369Z" fill="#FCFCF9"/>
<path d="M294 369C308.19 369 322.38 369 337 369C337 372.96 337 376.92 337 381C326.77 381 316.54 381 306 381C306 385.29 306 389.58 306 394C314.91 394 323.82 394 333 394C333 397.63 333 401.26 333 405C332 406 332 406 329.5 406.114C328.416 406.108 327.332 406.103 326.215 406.098C324.46 406.093 324.46 406.093 322.67 406.088C321.438 406.08 320.207 406.071 318.938 406.062C317.084 406.056 317.084 406.056 315.193 406.049C312.129 406.037 309.064 406.019 306 406C306.33 410.29 306.66 414.58 307 419C321.85 419.495 321.85 419.495 337 420C337 423.63 337 427.26 337 431C336 432 336 432 332.031 432.114C330.259 432.113 328.487 432.108 326.715 432.098C325.478 432.096 325.478 432.096 324.216 432.095C321.123 432.089 318.03 432.075 314.938 432.062C308.028 432.042 301.119 432.021 294 432C294 411.21 294 390.42 294 369Z" fill="#FCFCF9"/>
<path d="M366.999 454C368.478 453.973 369.958 453.954 371.437 453.938C372.261 453.926 373.084 453.914 373.933 453.902C375.999 454 375.999 454 376.999 455C377.087 456.927 377.106 458.857 377.097 460.785C377.094 461.955 377.091 463.125 377.087 464.33C377.079 465.562 377.07 466.793 377.062 468.062C377.057 469.298 377.053 470.534 377.048 471.807C377.036 474.871 377.02 477.936 376.999 481C378.126 479.395 379.252 477.789 380.378 476.184C381.005 475.29 381.633 474.396 382.279 473.474C383.522 471.687 384.738 469.88 385.937 468.062C386.617 467.052 387.298 466.041 387.999 465C388.842 463.61 388.842 463.61 389.702 462.191C394.782 454.341 394.782 454.341 398.519 453.293C400.78 453.311 402.798 453.496 404.999 454C405.934 456.803 406.099 458.319 406.021 461.196C406.001 462.037 405.981 462.877 405.96 463.743C405.92 465.098 405.92 465.098 405.878 466.48C405.843 467.872 405.843 467.872 405.807 469.293C405.73 472.258 405.646 475.223 405.562 478.188C405.509 480.197 405.456 482.207 405.404 484.217C405.274 489.145 405.139 494.072 404.999 499C402.017 500.491 399.283 500.119 395.999 500C394.254 498.255 394.766 495.81 394.683 493.434C394.641 492.309 394.599 491.184 394.556 490.025C394.517 488.841 394.477 487.657 394.437 486.438C394.394 485.25 394.35 484.062 394.306 482.838C394.199 479.892 394.097 476.946 393.999 474C391.229 477.321 391.229 477.321 388.999 481C388.339 481 387.679 481 386.999 481C386.772 481.681 386.546 482.361 386.312 483.062C384.687 486.699 382.671 490.028 379.999 493C379.339 493 378.679 493 377.999 493C377.917 493.598 377.834 494.196 377.749 494.812C376.749 497.73 375.701 498.54 372.999 500C369.812 500.25 369.812 500.25 366.999 500C365.148 498.149 365.867 495.53 365.861 493.067C365.865 492.22 365.87 491.373 365.874 490.5C365.876 489.63 365.878 488.759 365.88 487.862C365.951 476.566 366.476 465.283 366.999 454Z" fill="#FCFBF9"/>
<path d="M295 456C300.305 459.6 304.315 463.7 306 470C306.907 478.003 306.948 485.36 302 492C297.388 497.462 292.782 499.937 285.75 500.938C278.796 501.372 273.258 499.733 267.891 495.231C262.613 489.702 261.028 484.491 260.75 477C261.03 469.45 262.65 464.34 267.949 458.766C276.009 451.827 285.734 450.853 295 456ZM274 465C270.941 469.21 269.649 473.501 270 478.688C270.721 482.853 272.231 485.756 275 489C279.447 491.775 283.922 491.495 289 491C292.227 489.97 293.42 489.098 294.996 486.113C297.589 479.511 297.446 473.697 294.875 467.125C291.785 463.623 288.059 462.309 283.5 461.625C279.924 462.162 276.91 462.833 274 465Z" fill="#FCFCFA"/>
<path d="M350.124 452.875C351.073 452.916 352.022 452.957 352.999 453C354.677 455.929 355.236 457.944 355.134 461.31C355.114 462.15 355.094 462.991 355.073 463.857C355.025 465.204 355.025 465.204 354.976 466.578C354.938 467.968 354.938 467.968 354.9 469.386C354.818 472.341 354.721 475.295 354.624 478.25C354.566 480.255 354.509 482.26 354.452 484.266C354.312 489.177 354.159 494.089 353.999 499C350.534 499.495 350.534 499.495 346.999 500C344.469 496.205 344.776 493.188 344.874 488.812C344.915 486.234 344.957 483.656 344.999 481C338.729 481 332.459 481 325.999 481C325.999 486.94 325.999 492.88 325.999 499C321.65 499.87 320.028 500.036 315.999 499C315.974 492.752 315.956 486.504 315.944 480.256C315.939 478.129 315.932 476.002 315.924 473.874C315.912 470.824 315.906 467.773 315.902 464.723C315.896 463.765 315.891 462.808 315.886 461.822C315.886 460.941 315.886 460.06 315.886 459.153C315.883 458.373 315.881 457.594 315.879 456.791C315.999 455 315.999 455 316.999 454C318.812 453.867 318.812 453.867 320.999 453.875C321.721 453.872 322.443 453.87 323.187 453.867C324.999 454 324.999 454 325.999 455C326.072 457.865 326.091 460.699 326.062 463.562C326.031 467.739 326.031 467.739 325.999 472C332.269 472 338.539 472 344.999 472C344.92 466.495 344.92 466.495 344.819 460.991C344.804 458.993 344.9 456.995 344.999 455C346.999 453 346.999 453 350.124 452.875Z" fill="#FCFBF9"/>
<path d="M35.9964 459.769C40.0914 464.327 41.6474 470.53 42.5003 476.5C41.3883 484.283 38.8362 492.206 32.4964 497.18C26.0112 501.241 18.3699 500.941 11.0003 500C6.80427 498.429 4.09319 496.028 0.875264 493C0.000264347 491 0.000264347 491 0.437764 488.312C2.00026 486 2.00026 486 5.12526 485.187C6.07401 485.125 7.02276 485.064 8.00026 485C8.24776 485.639 8.49526 486.279 8.75026 486.937C9.77968 489.13 9.77968 489.13 11.7385 489.605C16.177 490.38 20.5278 490.603 25.0003 490C28.4134 487.474 29.6666 486.001 31.0003 482C25.3903 481.67 19.7803 481.34 14.0003 481C14.0003 478.36 14.0003 475.72 14.0003 473C19.9403 472.67 25.8803 472.34 32.0003 472C29.6566 466.177 29.6566 466.177 26.3753 464.062C21.9685 462.675 18.4288 462.635 14.0003 464C12.28 465.222 12.28 465.222 10.8128 466.687C9.88464 467.45 8.95651 468.214 8.00026 469C4.68776 468.562 4.68776 468.562 2.00026 467C0.812764 465.187 0.812764 465.187 1.00026 463C5.11968 457.684 10.6189 455.007 16.9378 453.125C24.2611 452.826 30.5029 454.899 35.9964 459.769Z" fill="#FDFCFB"/>
<path d="M131 454C134.3 454 137.6 454 141 454C141.33 459.28 141.66 464.56 142 470C142.967 468.845 143.934 467.69 144.93 466.5C146.243 464.999 147.559 463.499 148.875 462C149.507 461.237 150.138 460.474 150.789 459.688C155.647 454.247 155.647 454.247 159.739 453.5C162.213 453.5 164.555 453.638 167 454C166.75 456.375 166.75 456.375 166 459C164.062 460.062 164.062 460.062 162 461C160.732 463.034 160.732 463.034 160 465C159.34 465 158.68 465 158 465C157.773 465.557 157.546 466.114 157.312 466.688C155.647 469.622 153.378 471.622 151 474C150.67 474.99 150.34 475.98 150 477C150.66 477 151.32 477 152 477C153.662 478.988 155.216 480.979 156.75 483.062C159.606 486.885 162.457 490.606 165.688 494.125C166.451 495.074 167.214 496.022 168 497C167.67 497.99 167.34 498.98 167 500C159.01 500.783 159.01 500.783 154.938 497.625C153 495 153 495 153 493C151.515 492.505 151.515 492.505 150 492C148.54 490.367 147.151 488.671 145.812 486.938C145.097 486.018 144.382 485.099 143.645 484.152C143.102 483.442 142.559 482.732 142 482C141.939 483.143 141.879 484.287 141.816 485.465C141.732 486.956 141.647 488.447 141.562 489.938C141.504 491.07 141.504 491.07 141.443 492.225C141.113 497.887 141.113 497.887 140 499C137.03 499 134.06 499 131 499C131 484.15 131 469.3 131 454Z" fill="#FBFCFA"/>
<path d="M98.8128 453.734C99.9704 453.731 101.128 453.729 102.321 453.726C103.535 453.734 104.749 453.742 106 453.75C107.215 453.742 108.429 453.734 109.68 453.726C111.416 453.73 111.416 453.73 113.188 453.734C114.254 453.736 115.32 453.739 116.418 453.741C119 454 119 454 121 456C121.334 461.333 121.334 461.333 120 464C113.73 464 107.46 464 101 464C101 466.64 101 469.28 101 472C101.976 471.988 102.952 471.976 103.957 471.965C105.23 471.955 106.502 471.946 107.813 471.937C109.077 471.926 110.342 471.914 111.645 471.902C115 472 115 472 118 473C118.043 475.333 118.041 477.667 118 480C117 481 117 481 113.403 481.097C111.914 481.091 110.426 481.079 108.938 481.062C108.179 481.058 107.421 481.053 106.639 481.048C104.759 481.037 102.88 481.019 101 481C101 483.97 101 486.94 101 490C103.04 489.982 103.04 489.982 105.121 489.965C106.894 489.955 108.666 489.946 110.438 489.937C111.336 489.929 112.233 489.92 113.158 489.912C114.012 489.909 114.867 489.905 115.746 489.902C116.537 489.897 117.328 489.892 118.143 489.886C120 490 120 490 121 491C121.125 494.5 121.125 494.5 121 498C119.17 499.83 116.268 499.13 113.813 499.132C112.557 499.134 111.302 499.135 110.008 499.136C109.351 499.134 108.694 499.132 108.017 499.13C106.009 499.125 104.001 499.13 101.992 499.136C100.737 499.135 99.4814 499.134 98.1878 499.132C97.0263 499.131 95.8649 499.13 94.6683 499.129C92.0003 499 92.0003 499 91.0003 498C90.8867 494.921 90.8361 491.865 90.8323 488.785C90.829 487.859 90.8257 486.933 90.8222 485.979C90.8172 484.016 90.8148 482.053 90.815 480.09C90.8128 477.078 90.7947 474.068 90.7757 471.056C90.7727 469.153 90.7708 467.25 90.7698 465.347C90.7626 464.442 90.7555 463.537 90.748 462.604C90.7511 461.767 90.7542 460.929 90.7574 460.066C90.7559 459.328 90.7545 458.589 90.7531 457.828C91.3842 453.161 95 453.742 98.8128 453.734Z" fill="#FCFCFA"/>
<path d="M416 454C418.97 454 421.94 454 425 454C425.33 459.28 425.66 464.56 426 470C427.32 468.35 428.64 466.7 430 465C432.5 462.5 432.5 462.5 435 460C436.052 458.36 436.052 458.36 437.125 456.688C440.484 453.548 441.383 453.619 445.812 453.625C447.544 453.721 449.274 453.837 451 454C450.621 456.434 450.621 456.434 450 459C448.062 460.063 448.062 460.063 446 461C444.732 463.034 444.732 463.034 444 465C443.34 465 442.68 465 442 465C441.773 465.557 441.546 466.114 441.312 466.688C439.641 469.633 437.447 471.682 435 474C436.49 477.304 438.394 479.889 440.688 482.688C441.391 483.559 442.095 484.43 442.82 485.328C444.245 487.074 445.677 488.814 447.117 490.547C447.759 491.336 448.401 492.125 449.062 492.938C449.652 493.648 450.241 494.358 450.848 495.09C451.228 495.72 451.608 496.351 452 497C451.67 497.99 451.34 498.98 451 500C443.796 500.488 443.796 500.488 440.25 498.313C434 491.889 434 491.889 434 489C432.515 488.505 432.515 488.505 431 488C429.131 485.805 427.608 483.39 426 481C425.939 482.216 425.879 483.431 425.816 484.684C425.732 486.268 425.647 487.853 425.562 489.438C425.504 490.641 425.504 490.641 425.443 491.869C425.113 497.887 425.113 497.887 424 499C421.36 499 418.72 499 416 499C416 484.15 416 469.3 416 454Z" fill="#FCFCFA"/>
<path d="M66.4368 453.813C67.7033 453.8 68.9699 453.788 70.2747 453.776C71.4819 453.774 72.6892 453.772 73.9329 453.77C75.6044 453.763 75.6044 453.763 77.3097 453.757C79.9993 454 79.9993 454 81.9993 456C82.2019 457.873 82.2019 457.873 82.1346 460.174C82.1144 461.035 82.0943 461.896 82.0735 462.783C82.0252 464.178 82.0252 464.178 81.9759 465.602C81.9384 467.029 81.9384 467.029 81.9001 468.485C81.8177 471.532 81.7212 474.579 81.6243 477.625C81.5661 479.688 81.5088 481.75 81.4525 483.813C81.3121 488.875 81.1591 493.938 80.9993 499C74.847 499.098 74.847 499.098 72.9993 499C71.0211 497.022 71.7443 493.177 71.6829 490.465C71.6622 489.712 71.6414 488.958 71.62 488.182C71.5544 485.768 71.4955 483.353 71.4368 480.938C71.3937 479.304 71.3501 477.671 71.306 476.037C71.1987 472.025 71.0975 468.013 70.9993 464C67.6993 463.67 64.3993 463.34 60.9993 463C61.0458 464.628 61.0922 466.256 61.14 467.934C61.1775 470.102 61.2139 472.27 61.2493 474.438C61.2996 476.042 61.2996 476.042 61.3509 477.678C61.4327 484.366 61.0009 490.391 56.9993 496C55.5143 496.495 55.5143 496.495 53.9993 497C53.9993 497.66 53.9993 498.32 53.9993 499C51.6893 499.66 49.3793 500.32 46.9993 501C45.2772 498.366 44.9948 497.076 45.1868 493.875C45.9993 491 45.9993 491 48.9993 489C51.0733 485.079 51.2852 481.594 51.3783 477.203C51.4124 475.915 51.4466 474.628 51.4818 473.301C51.5091 471.951 51.5358 470.6 51.5618 469.25C51.6196 466.588 51.685 463.927 51.7533 461.266C51.7772 460.088 51.8011 458.91 51.8258 457.696C52.2407 451.252 61.44 453.815 66.4368 453.813Z" fill="#FCFCFA"/>
<path d="M479.062 452.938C480.516 452.968 480.516 452.968 482 453C484.837 457.719 487.041 462.362 488.875 467.562C490.823 472.949 492.922 478.203 495.25 483.438C497.51 488.623 499.146 493.405 500 499C499 500 499 500 497.152 500.098C495.101 500.065 493.051 500.033 491 500C490.326 498.733 489.661 497.461 489 496.188C488.443 495.126 488.443 495.126 487.875 494.043C487 492 487 492 487 489C481.39 489 475.78 489 470 489C469.67 491.31 469.34 493.62 469 496C467.937 498.438 467.937 498.438 466 500C463.245 500.332 460.793 500.183 458 500C457.661 495.147 458.531 493.079 461 489C461.861 486.789 462.67 484.558 463.437 482.312C473.649 453.048 473.649 453.048 479.062 452.938ZM478 467C477.298 468.577 476.614 470.162 475.937 471.75C475.554 472.632 475.172 473.513 474.777 474.422C473.954 477.153 474.022 478.369 475 481C477.31 481 479.62 481 482 481C483.243 479.047 483.243 479.047 482.512 476.941C482.24 476.156 481.968 475.371 481.687 474.562C481.423 473.78 481.159 472.998 480.887 472.191C479.993 469.771 479.993 469.771 478 467Z" fill="#FCFCFA"/>
<path d="M218.999 454C221.979 453.918 224.956 453.859 227.937 453.812C228.767 453.787 229.598 453.762 230.454 453.736C237.351 453.656 243.849 454.576 249.437 458.875C252.803 463.453 253.575 467.339 252.999 473C251.586 477.52 249.706 480.385 246.124 483.5C240.631 486.252 233.957 485.297 227.999 485C227.999 489.29 227.999 493.58 227.999 498C221.999 500 221.999 500 219.624 499.125C219.088 498.754 218.552 498.382 217.999 498C217.974 492.055 217.956 486.11 217.944 480.165C217.939 478.142 217.932 476.118 217.924 474.095C217.912 471.191 217.906 468.287 217.902 465.383C217.896 464.474 217.891 463.566 217.886 462.63C217.886 461.789 217.886 460.949 217.886 460.082C217.883 459.341 217.881 458.599 217.879 457.835C217.999 456 217.999 456 218.999 454ZM227.999 464C227.999 468.29 227.999 472.58 227.999 477C234.685 477.367 234.685 477.367 241.062 475.812C243.158 474.115 243.158 474.115 243.937 471.562C244.007 468.699 243.597 467.354 241.999 465C239.235 463.618 236.953 463.905 233.874 463.937C231.935 463.958 229.997 463.979 227.999 464Z" fill="#FCFCFA"/>
<path d="M179.537 453.748C180.289 453.755 181.041 453.762 181.816 453.77C182.588 453.77 183.36 453.771 184.155 453.771C185.786 453.774 187.418 453.782 189.05 453.794C191.556 453.813 194.062 453.815 196.568 453.815C198.151 453.82 199.734 453.825 201.316 453.832C202.448 453.834 202.448 453.834 203.602 453.836C208.884 453.884 208.884 453.884 210 455C210.133 456.813 210.133 456.813 210.125 459C210.129 460.083 210.129 460.083 210.133 461.188C210 463 210 463 209 464C206.814 464.073 204.625 464.084 202.438 464.063C200.641 464.049 200.641 464.049 198.809 464.035C197.882 464.024 196.955 464.012 196 464C196.016 465.02 196.031 466.039 196.048 467.09C196.102 470.865 196.136 474.641 196.165 478.417C196.18 480.052 196.2 481.688 196.226 483.323C196.263 485.671 196.28 488.019 196.293 490.367C196.316 491.468 196.316 491.468 196.34 492.59C196.341 494.652 196.341 494.652 196 498C193 500 193 500 186 499C186 487.45 186 475.9 186 464C182.04 464 178.08 464 174 464C172 462 172 462 171.75 459C172.2 453.604 174.715 453.769 179.537 453.748Z" fill="#FCFBF9"/>
<path d="M16 475C21.94 475 27.88 475 34 475C34 475.33 34 475.66 34 476C32.02 476 30.04 476 28 476C28 476.66 28 477.32 28 478C24.04 478 20.08 478 16 478C16 477.01 16 476.02 16 475Z" fill="#F8F6F2"/>
<path d="M478.562 452.938C479.769 452.968 479.769 452.968 481 453C480.34 453.66 479.68 454.32 479 455C479.66 455.66 480.32 456.32 481 457C478.625 458.062 478.625 458.062 476 459C475.34 458.67 474.68 458.34 474 458C475.124 453.021 475.124 453.021 478.562 452.938Z" fill="#F7F6F3"/>
</svg>
